<svg width="458.1875366210937px" height="387.2px" xmlns="http://www.w3.org/2000/svg" viewBox="20.906231689453136 -118.6 458.1875366210937 387.2" style="background: rgb(255, 255, 255);" preserveAspectRatio="xMidYMid"><defs><filter id="editing-hover" x="-100%" y="-100%" width="300%" height="300%"><feFlood flood-color="rgba(33.33333333333333%,33.33333333333333%,33.33333333333333%,0)" result="flood"></feFlood><feComposite operator="in" in2="SourceAlpha" in="flood" result="shadow"></feComposite><feOffset dx="7" dy="1.5" in="SourceGraphic" result="offset-1"></feOffset><feOffset dx="-7" dy="-1.5" in="shadow" result="offset-2"></feOffset><feMerge><feMergeNode in="offset-2"></feMergeNode><feMergeNode in="offset-1"></feMergeNode></feMerge></filter></defs><g filter="url(#editing-hover)"><g transform="translate(91.59997701644897, 130.20000076293945)"><path d="M62.20-108L62.20-108Q83.40-108 98.10-99.70L98.10-99.70L98.10-99.70Q112.80-91.40 112.80-74L112.80-74L75.80-74L75.80-74Q75.80-79.80 70.60-82.20L70.60-82.20L70.60-82.20Q67-84.20 61.60-84.20L61.60-84.20L61.60-84.20Q47.20-84.20 47.20-77.40L47.20-77.40L47.20-77.40Q47.20-73.60 52.20-72L52.20-72L52.20-72Q57.20-70.40 68.60-68.60L68.60-68.60L68.60-68.60Q82.60-66.60 92-63.90L92-63.90L92-63.90Q101.40-61.20 108.40-54.30L108.40-54.30L108.40-54.30Q115.40-47.40 115.40-35L115.40-35L115.40-35Q115.40-14.80 100.30-6.20L100.30-6.20L100.30-6.20Q85.20 2.40 60.80 2.40L60.80 2.40L60.80 2.40Q46.80 2.40 34.40-1.50L34.40-1.50L34.40-1.50Q22-5.40 14.20-13.60L14.20-13.60L14.20-13.60Q6.40-21.80 6.40-34.40L6.40-34.40L43.40-34.40L43.40-33.60L43.40-33.60Q43.60-26.80 49.10-24.10L49.10-24.10L49.10-24.10Q54.60-21.40 60.80-21.40L60.80-21.40L60.80-21.40Q77.40-21.40 77.40-29.20L77.40-29.20L77.40-29.20Q77.40-33.20 72.20-35L72.20-35L72.20-35Q67-36.80 55.20-38.80L55.20-38.80L55.20-38.80Q41-41.20 31.90-44L31.90-44L31.90-44Q22.80-46.80 16-53.50L16-53.50L16-53.50Q9.20-60.20 9.20-72.20L9.20-72.20L9.20-72.20Q9.20-91.60 23.90-99.80L23.90-99.80L23.90-99.80Q38.60-108 62.20-108L62.20-108ZM274.40-108L274.40-108Q292.40-108 301.40-97.70L301.40-97.70L301.40-97.70Q310.40-87.40 310.40-68.40L310.40-68.40L310.40 0L270.60 0L270.60-63.60L270.60-63.60Q270.60-70.40 267.30-74.50L267.30-74.50L267.30-74.50Q264-78.60 258-78.60L258-78.60L258-78.60Q251-78.60 246.60-73.80L246.60-73.80L246.60-73.80Q242.20-69 242.20-62L242.20-62L242.20 0L202.40 0L202.40-63.60L202.40-63.60Q202.40-70.40 199.10-74.50L199.10-74.50L199.10-74.50Q195.80-78.60 189.80-78.60L189.80-78.60L189.80-78.60Q182.80-78.60 178.40-73.80L178.40-73.80L178.40-73.80Q174-69 174-62L174-62L174 0L134.20 0L134.20-105.60L166.80-105.60L169.40-89.80L169.40-89.80Q175.40-98.20 185.30-103.10L185.30-103.10L185.30-103.10Q195.20-108 206.20-108L206.20-108L206.20-108Q230-108 238.20-89.80L238.20-89.80L238.20-89.80Q244.40-98.20 254.10-103.10L254.10-103.10L254.10-103.10Q263.80-108 274.40-108L274.40-108Z" fill="#000000"></path></g></g><style>text {
  font-size: 64px;
  font-family: Arial Black;
  dominant-baseline: central;
  text-anchor: middle;
}</style></svg>